<svg xmlns="http://www.w3.org/2000/svg" version="1.1" xmlns:xlink="http://www.w3.org/1999/xlink" width="512" height="512" x="0" y="0" viewBox="0 0 64 64" style="enable-background:new 0 0 512 512" xml:space="preserve" class=""><g><path d="M57.182 11.185A36.147 36.147 0 0 0 44.786 9h-1.955c-3.797 0-7.528.981-10.831 2.843A22.058 22.058 0 0 0 21.169 9h-1.955c-4.241 0-8.412.735-12.396 2.185A8.862 8.862 0 0 0 1 19.49a8.79 8.79 0 0 0 .632 3.282l.437 1.092a2.38 2.38 0 0 0-.069.55c0 1.146.16 2.285.474 3.385l1.032 3.613A3.572 3.572 0 0 0 5.47 33.67 11.19 11.19 0 0 0 4 39.196v1.419a7.761 7.761 0 0 0-2 5.212 8.641 8.641 0 0 0 6.808 8.487c2.045.456 4.145.686 6.24.686h7.295c3.591 0 6.984-1.282 9.657-3.63A14.546 14.546 0 0 0 41.657 55h7.295c2.095 0 4.195-.23 6.24-.685A8.64 8.64 0 0 0 62 45.828a7.761 7.761 0 0 0-2-5.212v-1.419a11.19 11.19 0 0 0-1.47-5.526 3.572 3.572 0 0 0 1.964-2.258l1.032-3.612A12.35 12.35 0 0 0 62 24.414c0-.19-.027-.372-.069-.55l.437-1.092A8.786 8.786 0 0 0 63 19.49a8.862 8.862 0 0 0-5.818-8.305zM4.397 27.249A10.324 10.324 0 0 1 4 24.414c0-.338.469-.532.707-.293L7 26.414v1.536c0 .803.129 1.598.383 2.362.151.454.386.859.674 1.217l-.012.012c-.296.296-.69.459-1.108.459a1.574 1.574 0 0 1-1.507-1.137zm51.923 6.67a9.146 9.146 0 0 1 1.679 5.08l-1.071-.803a14.655 14.655 0 0 0-1.135-4.437c.17.065.346.121.527.16zM46 34.552V32h1.382c.48 0 .953-.116 1.396-.302A9.172 9.172 0 0 1 50 36.243v2.636a1.123 1.123 0 0 1-1.915.793 14.857 14.857 0 0 1-2.217-2.838c.084-.758.132-1.52.132-2.282zm5.429-1.843c.462.185.953.291 1.458.291.088 0 .173-.015.26-.021A12.712 12.712 0 0 1 55 39.586c0 .337-.469.532-.708.293L52 37.586v-1.343c0-1.215-.197-2.404-.571-3.534zM55 27.95c0 .588-.095 1.17-.281 1.729a1.928 1.928 0 0 1-2.903.996l-1.154-.769c.217-.468.338-.984.338-1.524 0-1.065-.104-2.116-.283-3.154l2.535-3.803a.955.955 0 0 1 1.748.529zm-6 .432A1.619 1.619 0 0 1 47.382 30h-2.764c-.25 0-.5-.059-.724-.171A1.609 1.609 0 0 1 43 28.382c0-2.116.398-4.186 1.186-6.153C44.484 21.482 45.196 21 46 21s1.516.482 1.815 1.231A16.472 16.472 0 0 1 49 28.382zm-6 3.236a3.63 3.63 0 0 0 1 .31v2.624c0 1.543-.19 3.084-.564 4.581a1.143 1.143 0 0 1-1.111.867c-.436 0-.829-.242-1.023-.633a22.482 22.482 0 0 1-1.824-5.129l.19-1.516a13.328 13.328 0 0 0 1.548-.402c.547-.182 1-.535 1.314-.985.148.104.304.2.47.283zm-16.621 1.354a13.45 13.45 0 0 0 4.304-.499l-.584 4.673c-.047.372-.155.73-.323 1.065-.243.486-.732.789-1.276.789s-1.033-.303-1.276-.789a3.311 3.311 0 0 1-.323-1.065zm10.72 4.174c-.047.372-.155.73-.323 1.065-.243.486-.732.789-1.276.789s-1.033-.303-1.276-.789a3.302 3.302 0 0 1-.323-1.065l-.584-4.673c1.194.343 2.428.527 3.683.527.208 0 .414-.015.62-.025zM41 29.84a.61.61 0 0 1-.417.582 11.421 11.421 0 0 1-7.167-.001.61.61 0 0 1-.416-.581v-3.45c0-1.462.275-2.884.822-4.238.244-.629.68-1.17 1.252-1.56a3.491 3.491 0 0 1 3.843-.005 3.374 3.374 0 0 1 1.265 1.578c.543 1.341.818 2.763.818 4.225zm-10 0a.61.61 0 0 1-.417.582 11.421 11.421 0 0 1-7.167-.001.61.61 0 0 1-.416-.581v-3.45c0-1.462.275-2.884.822-4.238.244-.629.68-1.17 1.252-1.56a3.491 3.491 0 0 1 3.843-.005 3.374 3.374 0 0 1 1.265 1.578c.543 1.341.818 2.763.818 4.225zm-8.216 2.478a12.95 12.95 0 0 0 1.549.401l.19 1.518a22.513 22.513 0 0 1-1.824 5.13 1.14 1.14 0 0 1-1.025.633c-.526 0-.983-.356-1.11-.868a18.89 18.89 0 0 1-.564-4.58v-2.624c.346-.06.686-.153 1-.31.166-.083.322-.179.471-.284.313.451.766.803 1.313.984zm-13.076 7.56c-.24.241-.708.045-.708-.292 0-2.344.644-4.613 1.853-6.607.087.006.172.021.26.021.505 0 .997-.106 1.459-.291A11.204 11.204 0 0 0 12 36.243v1.343zm-2.635-1.682-1.071.803a9.135 9.135 0 0 1 1.678-5.08c.181-.038.356-.094.528-.16a14.655 14.655 0 0 0-1.135 4.437zM14 36.243c0-1.612.435-3.159 1.222-4.545.443.186.916.302 1.396.302H18v2.552c0 .763.048 1.525.132 2.282a14.85 14.85 0 0 1-2.217 2.837A1.123 1.123 0 0 1 14 38.879zm6.106-6.414c-.001 0-.001 0 0 0a1.626 1.626 0 0 1-.724.171h-2.764c-.25 0-.5-.059-.724-.171A1.609 1.609 0 0 1 15 28.382c0-2.116.398-4.186 1.186-6.153C16.484 21.482 17.196 21 18 21s1.516.482 1.815 1.231A16.472 16.472 0 0 1 21 28.382c0 .617-.343 1.172-.894 1.447zm-6.769.077-1.154.77a1.928 1.928 0 0 1-2.902-.995A5.49 5.49 0 0 1 9 27.95v-5.996a.955.955 0 0 1 1.748-.529l2.534 3.802A18.646 18.646 0 0 0 13 28.382c0 .54.121 1.056.337 1.524zm41.422 22.456a26.823 26.823 0 0 1-5.807.638h-7.295c-3.381 0-6.56-1.316-8.95-3.707a1.03 1.03 0 0 0-1.414 0A12.57 12.57 0 0 1 22.343 53h-7.295c-1.949 0-3.903-.215-5.807-.638A6.652 6.652 0 0 1 4 45.828c0-1.539.595-2.986 1.671-4.082l1.551-1.163A2.413 2.413 0 0 0 9.414 42c.635 0 1.257-.258 1.707-.707l1.151-1.151A3.124 3.124 0 0 0 15.122 42c.833 0 1.617-.324 2.208-.914.461-.462.891-.954 1.295-1.466a3.14 3.14 0 0 0 3.05 2.38 3.128 3.128 0 0 0 2.813-1.738c.272-.543.516-1.099.746-1.661.064.169.119.342.201.505C26.019 40.274 27.193 41 28.5 41s2.481-.726 3.065-1.895A5.27 5.27 0 0 0 32 37.787c.092.455.226.899.435 1.318A3.407 3.407 0 0 0 35.5 41c1.306 0 2.48-.726 3.064-1.894.082-.163.138-.336.202-.506.23.562.475 1.118.747 1.661A3.125 3.125 0 0 0 42.325 42a3.14 3.14 0 0 0 3.05-2.38c.405.512.834 1.004 1.296 1.466.59.59 1.373.914 2.207.914a3.123 3.123 0 0 0 2.849-1.858l1.152 1.152c.45.448 1.072.706 1.706.706.975 0 1.811-.583 2.193-1.416l1.551 1.163A5.789 5.789 0 0 1 60 45.828a6.652 6.652 0 0 1-5.241 6.534zm4.844-25.112-1.032 3.613A1.576 1.576 0 0 1 57.063 32c-.418 0-.812-.163-1.108-.459l-.012-.012c.288-.357.522-.763.674-1.217A7.475 7.475 0 0 0 57 27.95v-1.536l2.292-2.292c.241-.242.708-.046.708.292 0 .96-.134 1.914-.397 2.836zm.908-5.22-.055.138a2.401 2.401 0 0 0-.87-.168c-.635 0-1.257.258-1.707.707l-.879.879v-1.632A2.957 2.957 0 0 0 54.046 19c-.991 0-1.91.492-2.458 1.315l-1.528 2.293c-.123-.375-.241-.752-.388-1.122C49.067 19.976 47.626 19 46 19s-3.067.976-3.673 2.489c-.05.125-.084.254-.131.38-.053-.146-.095-.296-.154-.44a5.368 5.368 0 0 0-2.008-2.501 5.503 5.503 0 0 0-6.077.005 5.365 5.365 0 0 0-1.958 2.391 5.381 5.381 0 0 0-1.966-2.396 5.503 5.503 0 0 0-6.077.005 5.362 5.362 0 0 0-1.995 2.482c-.06.149-.104.304-.159.455-.048-.127-.082-.257-.133-.383C21.067 19.976 19.626 19 18 19s-3.067.976-3.673 2.489c-.147.368-.264.744-.387 1.118l-1.528-2.292A2.947 2.947 0 0 0 9.954 19 2.957 2.957 0 0 0 7 21.954v1.632l-.879-.88A2.438 2.438 0 0 0 4.414 22c-.307 0-.599.063-.87.168l-.055-.138A6.819 6.819 0 0 1 3 19.49a6.86 6.86 0 0 1 4.501-6.427A34.185 34.185 0 0 1 19.214 11h1.955c3.633 0 7.201.988 10.316 2.857.317.189.712.189 1.029 0A20.063 20.063 0 0 1 42.831 11h1.955c4.007 0 7.948.694 11.713 2.063A6.86 6.86 0 0 1 61 19.49c0 .874-.165 1.729-.489 2.54z" fill="#000000" opacity="1" data-original="#000000" class=""></path></g></svg>