<svg xmlns="http://www.w3.org/2000/svg" version="1.1" xmlns:xlink="http://www.w3.org/1999/xlink" width="512" height="512" x="0" y="0" viewBox="0 0 22.534 22.584" style="enable-background:new 0 0 512 512" xml:space="preserve" class=""><g><g data-name="Layer 2"><g data-name="Layer 1"><path d="M19.126 14.284c-.793 5.517-1.9 8.3-3.286 8.3-1.179 0-3.653-1.666-3.8-6.848a1.455 1.455 0 0 0-.859-1.33.515.515 0 0 0-.456 0 1.453 1.453 0 0 0-.859 1.33c-.147 5.182-2.621 6.848-3.8 6.848-1.98 0-3-5.852-3.423-9.325a1.04 1.04 0 0 0-.178-.469C1.424 11.308-1.725 6.2 1.241 2.428 4.156-1.279 7.113.072 9.729 1.251A.338.338 0 0 1 9.9 1.7a.344.344 0 0 1-.453.183C6.828.691 4.359-.426 1.779 2.856c-2.743 3.484.554 8.553 1.245 9.538a1.677 1.677 0 0 1 .294.782c.636 5.131 1.763 8.724 2.748 8.724.92 0 2.987-1.564 3.114-6.186a2.13 2.13 0 0 1 1.235-1.914c.992-.467 2.271.5 2.31 1.921.127 4.632 2.19 6.186 3.115 6.186.691 0 1.787-2.021 2.61-7.721a.342.342 0 0 1 .676.1zm3.408-4.826a.358.358 0 0 1-.03.122.056.056 0 0 1-.004.02.287.287 0 0 1-.067.1L19.4 12.739a.427.427 0 0 1-.113.072.291.291 0 0 1-.132.02h-6.079a.291.291 0 0 1-.132-.02.5.5 0 0 1-.112-.072L9.8 9.7a.285.285 0 0 1-.066-.1l-.01-.021a.323.323 0 0 1-.024-.121h-.007c.007-.008-.011-6.083.007-6.084a.244.244 0 0 1 .031-.132.268.268 0 0 1 .066-.1L12.832.1a.467.467 0 0 1 .1-.071c.01 0 .01 0 .015-.01A.462.462 0 0 1 13.076 0h6.075a.376.376 0 0 1 .122.021.032.032 0 0 0 .021.01A.521.521 0 0 1 19.4.1l3.032 3.04a.271.271 0 0 1 .067.1.312.312 0 0 1 .035.132zm-8.924 2.693h5.007l-.817-1.778h-3.368zm5.77-3.972V4.664C19 4.29 18.244 3.531 17.872 3.15h-3.516l-1.508 1.514v3.515l1.508 1.5h3.516a305.48 305.48 0 0 1 1.508-1.5zM12.161 8.1V4.734l-1.782-.822v5.009zM18.617.682H13.61l.822 1.787H17.8zM20.065 8.1l1.784.823V3.912l-1.784.822zM19.258.925l-.833 1.808c.339.344 1.027 1.033 1.371 1.372l1.8-.833zm-8.63 2.347 1.8.833L13.8 2.733 12.97.925zm2.342 8.635.83-1.807-1.369-1.373-1.8.833zM21.6 9.56l-1.8-.833c-.344.339-1.032 1.027-1.371 1.371l.833 1.809z" data-name="tooth jewelry" fill="#056ba3" opacity="1" data-original="#000000" class=""></path></g></g></g></svg>