<svg xmlns="http://www.w3.org/2000/svg" version="1.1" xmlns:xlink="http://www.w3.org/1999/xlink" width="512" height="512" x="0" y="0" viewBox="0 0 64 64" style="enable-background:new 0 0 512 512" xml:space="preserve" class=""><g><path d="M52.47 15.67c-.07-.07-.15-.13-.24-.18-2.85-1.35-3.67-1.47-5.48-1.72-.46-.06-.99-.14-1.65-.24 1.26-.7 2.59-1.27 3.9-1.83l2.69-1.13c.52-.22.91-.69 1.03-1.25a1.76 1.76 0 0 0-.42-1.55c-1.91-2.08-4.28-3.57-6.68-4.2-4.3-1.15-7.79 1.01-10.93 3.5a4.275 4.275 0 0 1-5.38 0c-3.14-2.49-6.63-4.65-10.93-3.51-2.83.75-5.63 2.72-7.68 5.39-.32.42-.43.95-.32 1.46.11.5.44.93.89 1.17 2.18 1.15 4.65 2.37 7.35 3.48-2.47.18-5.34.61-7.77 1.6-.13.05-.24.13-.32.25-3.25 4.41-4.99 11.59-.14 18.52 4.97 7.1 5.3 9 5.86 12.14.22 1.25.46 2.66 1.03 4.64 1.62 5.67 4.22 8.54 7.72 8.54 1.09 0 1.98-.36 2.64-1.07 1.74-1.87 1.47-5.72 1.23-9.12-.09-1.33-.18-2.59-.12-3.51.18-3.01 2.33-3.34 3.25-3.34s3.07.33 3.25 3.33c.06.93-.03 2.19-.12 3.52-.24 3.4-.51 7.25 1.23 9.12.66.71 1.55 1.07 2.64 1.07 3.5 0 6.1-2.87 7.72-8.54.57-1.98.81-3.39 1.03-4.64.56-3.14.89-5.04 5.86-12.14 5.37-7.66 2.74-15.43-1.14-19.76zm-40.5-5.42a.274.274 0 0 1-.13-.16.281.281 0 0 1 .05-.22c1.85-2.42 4.36-4.19 6.87-4.86.68-.18 1.34-.26 1.99-.26 2.62 0 5 1.41 7.62 3.5 2.14 1.7 5.12 1.7 7.26 0 3.27-2.61 6.16-4.15 9.61-3.23 2.13.56 4.24 1.9 5.95 3.76h.01c.07.08.06.18.05.22-.01.05-.04.14-.15.19l-2.68 1.13c-2.08.88-4.22 1.78-6.09 3.18-.4.3-.79.63-1.18.95-.67.57-1.31 1.11-2.03 1.52-2.27 1.33-5.16 1.24-7.14 1.05-7.69-.71-14.73-3.99-20.01-6.77zm40.42 24.32c-5.16 7.37-5.54 9.51-6.11 12.74-.22 1.21-.46 2.59-1 4.48-2.13 7.46-5.25 7.46-6.28 7.46-.66 0-1.17-.19-1.54-.6-1.3-1.39-1.04-5.05-.84-7.99.1-1.38.19-2.68.13-3.71-.21-3.49-2.59-4.74-4.75-4.74s-4.54 1.25-4.75 4.75c-.06 1.02.03 2.32.13 3.7.2 2.94.46 6.6-.84 7.99-.37.41-.88.6-1.54.6-1.03 0-4.15 0-6.28-7.46-.54-1.89-.78-3.27-1-4.48-.57-3.23-.95-5.37-6.11-12.74-3.6-5.15-3.67-11.18-.24-16.24.81.49 1.51 1.25 2.24 2.07.95 1.06 1.93 2.16 3.29 2.77 1.28.57 2.63.6 3.93.62.91.02 1.78.04 2.59.23.79.19 1.55.55 2.35.94.92.44 1.87.89 2.94 1.1.4.07.8.11 1.21.11 1.27 0 2.66-.34 4.22-1.01.7-.31 1.38-.66 2.04-1 .87-.45 1.7-.87 2.57-1.21.98-.38 1.98-.65 3.05-.93 1.07-.28 2.19-.58 3.26-1 1.86-.73 3.56-1.84 5.19-2.91.5-.32 1-.64 1.51-.95 3.28 3.99 5.29 10.74.63 17.41z" fill="#056ba3" opacity="1" data-original="#000000" class=""></path></g></svg>