<svg xmlns="http://www.w3.org/2000/svg" xmlns:xlink="http://www.w3.org/1999/xlink" width="2048" zoomAndPan="magnify" viewBox="0 0 1536 1535.999932" height="2048" preserveAspectRatio="xMidYMid meet" version="1.0"><defs><clipPath id="a461c54c2e"><path d="M 190.996094 474 L 903 474 L 903 1339 L 190.996094 1339 Z M 190.996094 474 " clip-rule="nonzero"/></clipPath><clipPath id="2127ba8428"><path d="M 798 348 L 1345.246094 348 L 1345.246094 498 L 798 498 Z M 798 348 " clip-rule="nonzero"/></clipPath></defs><g clip-path="url(#a461c54c2e)"><path fill="#056ba3" d="M 430.542969 1338.300781 C 422.136719 1338.300781 413.003906 1335.902344 403.394531 1331.097656 C 390.898438 1324.851562 379.367188 1315.484375 368.554688 1302.757812 C 309.929688 1234.308594 290.707031 1151.6875 280.375 1087.320312 C 274.128906 1048.414062 274.371094 1009.984375 275.089844 970.597656 C 275.570312 942.738281 268.84375 915.359375 254.1875 884.136719 C 249.863281 874.769531 244.816406 865.402344 239.773438 856.515625 C 232.324219 842.585938 224.632812 828.414062 218.386719 813.285156 C 193.160156 750.597656 185.472656 696.320312 194.601562 642.523438 C 201.808594 599.769531 218.386719 565.425781 245.296875 537.324219 C 307.527344 472.71875 397.386719 456.386719 480.039062 494.816406 C 487.25 498.175781 490.371094 506.824219 487.007812 514.027344 C 483.644531 521.234375 474.996094 524.355469 467.785156 520.992188 C 395.464844 487.371094 320.019531 501.058594 265.960938 557.261719 C 243.136719 581.039062 229.199219 610.578125 222.953125 647.324219 C 214.785156 695.839844 221.992188 745.074219 245.058594 802.476562 C 250.582031 816.167969 257.550781 829.136719 265 842.824219 C 270.046875 852.191406 275.332031 861.800781 279.894531 871.886719 C 296.714844 907.433594 304.164062 938.894531 303.683594 971.316406 C 302.960938 1009.265625 302.722656 1046.253906 308.730469 1082.757812 C 318.339844 1143.28125 336.359375 1220.859375 390.417969 1284.023438 C 398.828125 1293.871094 407.238281 1300.835938 416.367188 1305.398438 C 428.863281 1311.644531 434.628906 1309.722656 438.953125 1306.601562 C 444 1302.996094 446.402344 1297.714844 443.039062 1282.824219 C 436.3125 1252.800781 433.667969 1222.539062 431.746094 1196.601562 C 428.863281 1157.691406 430.0625 1121.90625 435.589844 1086.601562 C 443.757812 1034.964844 462.019531 997.496094 493.015625 969.15625 C 527.613281 937.453125 565.574219 936.972656 600.175781 967.714844 C 630.6875 994.855469 649.429688 1031.84375 657.359375 1080.117188 C 667.691406 1142.320312 666.007812 1207.886719 652.554688 1274.65625 C 652.074219 1276.578125 651.832031 1278.257812 651.351562 1280.179688 C 650.148438 1285.703125 648.707031 1291.707031 649.910156 1295.070312 C 652.070312 1302.277344 655.4375 1306.601562 659.761719 1308.28125 C 665.285156 1310.441406 673.457031 1308.519531 682.347656 1303.238281 C 705.171875 1289.789062 720.308594 1267.453125 731.121094 1249.199219 C 765 1192.277344 783.980469 1127.910156 789.746094 1052.496094 C 791.429688 1030.882812 791.667969 1008.546875 790.46875 986.6875 C 788.0625 940.816406 799.597656 896.144531 824.34375 853.394531 C 847.652344 813.285156 862.308594 775.578125 868.792969 737.628906 C 881.527344 664.378906 866.152344 607.214844 822.183594 562.304688 C 794.550781 534.203125 758.75 519.792969 718.867188 520.515625 C 671.054688 521.472656 636.933594 535.164062 611.226562 563.746094 C 594.648438 582.238281 576.386719 599.53125 558.847656 616.34375 L 557.886719 617.304688 C 552.121094 622.828125 542.992188 622.585938 537.464844 616.824219 C 531.9375 611.058594 532.179688 601.933594 537.945312 596.410156 L 538.90625 595.449219 C 556.207031 579.117188 573.984375 562.304688 589.84375 544.53125 C 620.835938 510.1875 662.882812 492.652344 718.386719 491.691406 C 766.441406 490.730469 809.6875 508.023438 842.84375 542.128906 C 893.78125 594.007812 911.5625 659.574219 897.386719 742.671875 C 890.179688 783.984375 874.5625 825.054688 849.574219 868.042969 C 827.46875 905.75 817.378906 945.140625 819.539062 985.25 C 820.742188 1008.546875 820.5 1031.84375 818.578125 1054.898438 C 812.570312 1134.875 792.148438 1203.324219 755.867188 1264.089844 C 743.375 1284.984375 725.355469 1311.402344 697.003906 1328.214844 C 680.183594 1338.0625 663.363281 1340.703125 649.429688 1335.421875 C 640.539062 1332.058594 628.765625 1323.890625 622.519531 1303.957031 C 619.15625 1293.148438 621.558594 1282.582031 623.480469 1274.175781 C 623.960938 1272.496094 624.199219 1271.054688 624.441406 1269.371094 C 637.175781 1205.96875 638.617188 1144.003906 629.007812 1085.160156 C 622.277344 1043.371094 606.421875 1012.148438 581.191406 989.570312 C 558.128906 968.917969 536.261719 969.15625 512.957031 990.773438 C 487.007812 1014.550781 471.628906 1046.492188 464.664062 1091.40625 C 459.375 1124.308594 458.175781 1158.171875 461.058594 1194.679688 C 462.980469 1219.65625 465.382812 1248.71875 471.628906 1276.816406 C 473.550781 1285.945312 479.800781 1313.566406 456.253906 1330.375 C 448.085938 1335.660156 439.675781 1338.300781 430.542969 1338.300781 Z M 430.542969 1338.300781 " fill-opacity="1" fill-rule="nonzero"/></g><path fill="#056ba3" d="M 911.082031 386.015625 C 889.21875 386.015625 870.234375 376.410156 854.136719 356.957031 C 849.09375 350.710938 850.054688 341.824219 856.058594 336.78125 C 862.308594 331.738281 871.195312 332.699219 876.242188 338.703125 C 892.101562 357.917969 909.398438 362 934.148438 352.394531 C 940.632812 349.992188 947.121094 347.828125 953.367188 345.667969 C 960.097656 343.507812 966.582031 341.34375 973.070312 338.703125 C 1010.792969 324.050781 1049.476562 310.121094 1086.71875 296.914062 C 1097.769531 293.070312 1108.824219 288.988281 1119.875 285.144531 C 1142.941406 276.738281 1166.488281 268.574219 1189.3125 260.648438 C 1203.730469 255.601562 1218.386719 250.558594 1232.800781 245.277344 C 1243.613281 241.433594 1254.425781 237.589844 1264.996094 233.507812 C 1284.9375 226.0625 1305.363281 218.617188 1326.023438 212.132812 C 1333.714844 209.730469 1341.644531 213.8125 1344.046875 221.5 C 1346.449219 229.183594 1342.363281 237.109375 1334.675781 239.511719 C 1314.734375 245.757812 1294.550781 253.203125 1274.847656 260.648438 C 1264.277344 264.488281 1253.222656 268.574219 1242.410156 272.414062 C 1227.996094 277.457031 1213.339844 282.742188 1198.683594 287.785156 C 1175.859375 295.710938 1152.3125 304.117188 1129.484375 312.285156 C 1118.433594 316.367188 1107.382812 320.210938 1096.328125 324.050781 C 1059.085938 337.261719 1020.644531 350.953125 983.402344 365.601562 C 976.433594 368.242188 969.226562 370.644531 962.5 373.046875 C 956.253906 375.210938 950.246094 377.128906 944.480469 379.292969 C 932.945312 383.617188 921.652344 386.015625 911.082031 386.015625 Z M 911.082031 386.015625 " fill-opacity="1" fill-rule="nonzero"/><g clip-path="url(#2127ba8428)"><path fill="#056ba3" d="M 947.601562 497.9375 C 915.167969 497.9375 884.652344 486.890625 858.945312 465.035156 C 857.019531 463.351562 854.859375 461.671875 852.9375 459.992188 C 834.917969 444.859375 816.175781 429.25 801.277344 409.074219 C 796.472656 402.589844 797.914062 393.703125 804.164062 388.898438 C 810.648438 384.09375 819.539062 385.535156 824.34375 392.019531 C 837.320312 409.3125 853.898438 423.242188 871.4375 437.894531 C 873.601562 439.574219 875.523438 441.257812 877.683594 442.9375 C 903.632812 464.792969 933.667969 472.960938 967.304688 467.4375 C 976.195312 465.996094 985.324219 462.632812 994.695312 459.03125 C 1002.625 456.148438 1011.035156 453.023438 1019.921875 450.863281 C 1039.386719 446.058594 1059.085938 438.855469 1078.070312 432.128906 C 1085.277344 429.488281 1092.726562 426.847656 1100.171875 424.203125 C 1121.558594 416.757812 1143.421875 409.554688 1164.804688 402.589844 C 1190.753906 394.183594 1217.425781 385.296875 1243.375 376.167969 L 1252.742188 372.808594 C 1276.769531 364.160156 1301.757812 355.273438 1327.226562 348.550781 C 1334.914062 346.628906 1342.84375 351.191406 1344.765625 358.878906 C 1346.6875 366.5625 1342.125 374.488281 1334.433594 376.410156 C 1310.167969 382.65625 1285.902344 391.300781 1262.355469 399.707031 L 1252.984375 403.070312 C 1226.554688 412.4375 1199.644531 421.324219 1173.695312 429.726562 C 1152.550781 436.695312 1130.925781 443.660156 1109.542969 451.105469 C 1102.335938 453.503906 1094.886719 456.386719 1087.917969 458.789062 C 1068.21875 465.996094 1047.792969 473.441406 1026.652344 478.484375 C 1019.441406 480.164062 1012.234375 483.046875 1004.546875 485.6875 C 994.214844 489.53125 983.402344 493.613281 971.628906 495.535156 C 963.460938 497.21875 955.53125 497.9375 947.601562 497.9375 Z M 947.601562 497.9375 " fill-opacity="1" fill-rule="nonzero"/></g><path fill="#056ba3" d="M 745.535156 456.628906 C 738.089844 456.628906 730.640625 454.464844 723.671875 450.144531 C 711.898438 443.179688 702.769531 434.050781 693.878906 425.164062 C 687.390625 418.679688 681.144531 412.4375 674.175781 407.390625 C 668.171875 403.070312 663.605469 397.304688 659.28125 391.78125 C 656.398438 388.179688 653.515625 384.816406 650.871094 382.175781 C 640.78125 372.808594 635.011719 360.796875 634.53125 348.070312 C 634.292969 335.101562 639.339844 322.371094 649.1875 312.523438 C 682.105469 278.898438 714.78125 243.835938 745.296875 211.171875 C 753.464844 202.285156 762.597656 197.722656 772.445312 197.480469 C 782.296875 197.242188 791.910156 201.082031 800.796875 209.488281 C 820.5 227.742188 839 247.4375 857.261719 266.410156 C 864.710938 274.335938 872.640625 282.503906 880.328125 290.429688 C 905.074219 315.886719 880.808594 342.546875 869.273438 355.515625 C 868.074219 356.714844 867.113281 357.917969 866.152344 359.117188 C 865.671875 359.597656 865.191406 360.078125 864.710938 360.796875 C 849.574219 378.332031 833.476562 395.382812 816.414062 410.996094 C 804.882812 421.804688 792.628906 433.089844 779.65625 443.179688 C 768.121094 452.066406 756.589844 456.628906 745.535156 456.628906 Z M 773.886719 226.300781 C 773.648438 226.300781 773.648438 226.300781 773.886719 226.300781 C 771.964844 226.300781 769.324219 227.984375 766.679688 230.867188 C 736.167969 263.769531 703.25 299.074219 669.851562 332.9375 C 665.527344 337.261719 663.125 342.546875 663.363281 347.589844 C 663.605469 352.394531 665.765625 357.195312 670.332031 361.039062 C 674.65625 365.121094 678.5 369.683594 681.867188 373.769531 C 685.230469 377.851562 688.351562 381.933594 691.234375 383.855469 C 700.125 390.101562 707.332031 397.546875 714.542969 404.511719 C 722.472656 412.4375 729.917969 419.882812 738.808594 425.164062 C 743.613281 428.046875 749.863281 429.488281 762.113281 419.882812 C 774.128906 410.515625 785.902344 399.464844 797.195312 389.378906 C 813.292969 374.488281 828.910156 358.398438 843.085938 341.585938 C 843.566406 340.863281 844.285156 340.382812 844.765625 339.664062 C 845.96875 338.460938 846.929688 337.261719 848.132812 335.820312 C 864.230469 318.046875 863.988281 314.445312 859.90625 310.121094 C 851.976562 301.957031 844.285156 293.789062 836.597656 285.863281 C 818.820312 267.132812 800.558594 247.917969 781.578125 230.386719 C 778.453125 227.742188 775.570312 226.300781 773.886719 226.300781 Z M 855.339844 349.269531 Z M 855.339844 349.269531 " fill-opacity="1" fill-rule="nonzero"/><path fill="#056ba3" d="M 511.515625 590.402344 C 507.671875 590.402344 504.066406 588.964844 501.183594 586.082031 C 495.65625 580.316406 495.898438 571.191406 501.425781 565.667969 C 529.296875 538.765625 556.6875 510.1875 583.355469 482.566406 C 609.304688 455.667969 635.972656 427.808594 663.363281 401.386719 C 664.324219 400.667969 665.285156 399.226562 666.25 397.785156 C 668.171875 395.144531 670.8125 392.019531 674.417969 389.140625 C 680.664062 384.09375 689.792969 385.054688 694.601562 391.300781 C 699.644531 397.546875 698.683594 406.671875 692.4375 411.476562 C 691.476562 412.195312 690.515625 413.636719 689.074219 415.316406 C 687.390625 417.480469 685.710938 419.640625 683.308594 422.042969 C 656.398438 448.222656 629.726562 475.839844 604.019531 502.5 C 577.347656 530.121094 549.71875 558.941406 521.367188 586.320312 C 518.722656 588.964844 515.121094 590.402344 511.515625 590.402344 Z M 511.515625 590.402344 " fill-opacity="1" fill-rule="nonzero"/><path fill="#056ba3" d="M 997.097656 482.566406 C 992.53125 482.566406 988.207031 480.40625 985.324219 476.5625 C 982.921875 473.199219 981.960938 470.078125 981.238281 467.914062 C 981 467.4375 981 467.195312 980.757812 466.714844 C 973.550781 446.539062 966.824219 426.125 960.578125 406.191406 C 956.492188 393.703125 952.40625 380.972656 948.324219 368.484375 C 945.679688 361.039062 949.765625 352.875 957.453125 350.230469 C 964.902344 347.589844 973.070312 351.671875 975.714844 359.359375 C 980.039062 372.085938 984.125 385.054688 988.207031 397.546875 C 994.453125 417.238281 1000.941406 437.414062 1008.148438 457.109375 C 1008.390625 457.828125 1008.628906 458.308594 1008.871094 459.03125 C 1009.109375 459.511719 1009.109375 459.75 1009.351562 460.230469 C 1013.675781 466.714844 1012.234375 475.359375 1005.988281 479.925781 C 1002.863281 481.605469 999.980469 482.566406 997.097656 482.566406 Z M 1008.628906 459.75 Z M 1008.628906 459.75 " fill-opacity="1" fill-rule="nonzero"/></svg>