<svg xmlns="http://www.w3.org/2000/svg" xmlns:xlink="http://www.w3.org/1999/xlink" width="500" zoomAndPan="magnify" viewBox="0 0 1536 1535.999932" height="500" preserveAspectRatio="xMidYMid meet" version="1.0"><defs><clipPath id="62470d2814"><path d="M 302.511719 192.433594 L 1233.261719 192.433594 L 1233.261719 1343.683594 L 302.511719 1343.683594 Z M 302.511719 192.433594 " clip-rule="nonzero"/></clipPath></defs><g clip-path="url(#62470d2814)"><path fill="#056ba3" d="M 491.210938 1103.816406 C 504.238281 1164.617188 519.507812 1220.796875 537.671875 1258.308594 C 551.34375 1286.53125 565.203125 1301.816406 578.375 1293.355469 C 595.269531 1282.503906 610.148438 1263.847656 621.5625 1242.714844 C 634.648438 1218.492188 642.847656 1191.730469 644.277344 1169.785156 C 645.035156 1158.140625 644.820312 1144.65625 644.585938 1130.164062 C 643.660156 1072.765625 642.515625 1001.628906 690.242188 962.570312 C 716.9375 940.71875 753.941406 929.792969 790.585938 929.792969 C 827.230469 929.792969 864.234375 940.71875 890.929688 962.570312 C 938.652344 1001.628906 937.507812 1072.765625 936.585938 1130.164062 C 936.351562 1144.65625 936.136719 1158.140625 936.894531 1169.785156 C 938.324219 1191.730469 946.523438 1218.492188 959.609375 1242.710938 C 971.023438 1263.847656 985.902344 1282.503906 1002.796875 1293.355469 C 1012.828125 1299.800781 1023.21875 1292.40625 1033.53125 1276.335938 C 1075.625 1210.757812 1103.449219 1040.65625 1123.664062 917.054688 C 1134.820312 848.84375 1143.75 794.242188 1152.820312 773.894531 C 1179.816406 713.332031 1196.375 633.882812 1182.351562 563.3125 C 1171.875 510.59375 1143.777344 462.855469 1089.023438 432.640625 C 1082.246094 428.898438 1075.949219 425.738281 1070.089844 423.109375 C 1067.714844 422.046875 1065.296875 421.019531 1062.835938 420.03125 C 1062.355469 420.394531 1061.878906 420.757812 1061.40625 421.128906 C 1039.398438 438.34375 1023.371094 464.519531 1013.328125 499.65625 L 1013.277344 499.644531 C 1010.625 508.988281 1002.175781 515.960938 991.953125 516.28125 C 979.300781 516.675781 968.726562 506.742188 968.328125 494.085938 C 967.203125 461.734375 959.769531 435.039062 946.035156 414.003906 C 933.019531 417.203125 919.851562 421.179688 906.417969 425.234375 C 871.902344 435.648438 835.742188 446.5625 791.484375 448.355469 C 790.835938 448.382812 790.191406 448.378906 789.550781 448.351562 C 745.355469 446.539062 709.234375 435.636719 674.753906 425.234375 C 617.523438 407.960938 565.375 392.222656 492.144531 432.640625 C 437.394531 462.855469 409.296875 510.59375 398.820312 563.3125 C 384.796875 633.882812 401.355469 713.332031 428.351562 773.894531 C 437.246094 793.851562 446.011719 846.769531 456.871094 913.160156 C 460.28125 907.308594 463.488281 901.042969 466.496094 894.351562 C 470.191406 885.058594 479.707031 878.949219 490.144531 880.015625 C 502.746094 881.304688 511.914062 892.570312 510.625 905.175781 C 507.078125 938.765625 511.617188 966.832031 524.234375 989.363281 C 524.460938 989.710938 524.679688 990.0625 524.890625 990.425781 C 537.789062 1012.777344 559.257812 1030.453125 589.289062 1043.457031 C 599.089844 1047.011719 605.523438 1056.949219 604.25 1067.753906 C 602.761719 1080.355469 591.339844 1089.367188 578.742188 1087.878906 C 546.125 1083.914062 518.636719 1088.195312 496.277344 1100.722656 C 495.933594 1100.949219 495.578125 1101.167969 495.21875 1101.378906 C 493.867188 1102.15625 492.53125 1102.972656 491.210938 1103.816406 Z M 1046.222656 375.847656 C 1041.726562 378.679688 1037.386719 381.734375 1033.203125 385.007812 C 1020.710938 394.777344 1009.71875 406.390625 1000.214844 419.84375 C 994.25 404.488281 986.394531 390.574219 976.644531 378.097656 C 975.84375 377.070312 975.027344 376.054688 974.199219 375.050781 C 973.480469 374.035156 972.679688 373.089844 971.8125 372.214844 C 963.558594 362.636719 954.164062 354.0625 943.640625 346.492188 C 958.101562 340.726562 971.3125 333.171875 983.269531 323.816406 C 995.761719 314.046875 1006.757812 302.433594 1016.257812 288.980469 C 1022.222656 304.335938 1030.078125 318.25 1039.828125 330.726562 C 1049.195312 342.707031 1060.195312 353.242188 1072.832031 362.335938 C 1064.613281 365.609375 1056.796875 369.464844 1049.386719 373.902344 C 1048.28125 374.460938 1047.222656 375.113281 1046.222656 375.847656 Z M 1118.96875 396.90625 C 1182.175781 434.75 1214.988281 491.839844 1227.441406 554.507812 C 1243.433594 634.972656 1224.964844 724.640625 1194.675781 792.585938 C 1188.074219 807.394531 1179.5625 859.425781 1168.933594 924.421875 C 1148.066406 1052.019531 1119.34375 1227.621094 1072.15625 1301.132812 C 1046.527344 1341.0625 1015.660156 1356.175781 978.003906 1331.992188 C 954.167969 1316.679688 934.019531 1291.914062 919.1875 1264.457031 C 903.074219 1234.625 892.925781 1200.925781 891.085938 1172.660156 C 890.28125 1160.304688 890.519531 1145.429688 890.777344 1129.445312 C 891.539062 1082.019531 892.484375 1023.242188 861.828125 998.152344 C 843.621094 983.25 817.28125 975.796875 790.585938 975.796875 C 763.886719 975.796875 737.550781 983.25 719.34375 998.152344 C 688.683594 1023.242188 689.632812 1082.019531 690.394531 1129.445312 C 690.652344 1145.429688 690.890625 1160.304688 690.085938 1172.660156 C 688.242188 1200.925781 678.097656 1234.625 661.984375 1264.457031 C 647.148438 1291.914062 627.003906 1316.683594 603.164062 1331.992188 C 558.320312 1360.796875 523.6875 1334.6875 496.355469 1278.253906 C 479.621094 1243.703125 465.410156 1195.976562 453.140625 1143.566406 C 448.621094 1150.757812 444.433594 1158.636719 440.585938 1167.203125 C 436.890625 1176.496094 427.371094 1182.605469 416.9375 1181.535156 C 404.335938 1180.246094 395.167969 1168.980469 396.457031 1156.378906 C 400 1122.785156 395.464844 1094.722656 382.84375 1072.191406 C 382.621094 1071.84375 382.402344 1071.488281 382.191406 1071.128906 C 369.289062 1048.777344 347.824219 1031.097656 317.792969 1018.097656 C 307.992188 1014.539062 301.558594 1004.605469 302.832031 993.800781 C 304.320312 981.195312 315.742188 972.183594 328.339844 973.675781 C 361.46875 977.703125 389.308594 973.203125 411.863281 960.175781 L 411.886719 960.214844 L 411.953125 960.175781 C 413.84375 959.085938 415.699219 957.929688 417.53125 956.710938 C 415.921875 946.9375 414.058594 935.550781 412.242188 924.457031 C 401.609375 859.445312 393.097656 807.398438 386.496094 792.585938 C 356.207031 724.640625 337.738281 634.972656 353.730469 554.507812 C 366.6875 489.296875 401.6875 430.113281 470.050781 392.386719 C 560.148438 342.660156 621.042969 361.039062 687.867188 381.207031 C 719.628906 390.789062 752.894531 400.828125 790.585938 402.492188 C 828.277344 400.828125 861.542969 390.789062 893.300781 381.207031 C 897.792969 379.851562 902.253906 378.503906 906.707031 377.183594 C 894.230469 369.871094 879.796875 364.007812 863.398438 359.597656 L 863.414062 359.546875 C 853.765625 356.972656 846.585938 348.246094 846.421875 337.761719 C 846.226562 325.109375 856.320312 314.691406 868.96875 314.492188 C 904.390625 313.816406 933.09375 304.882812 955.066406 287.695312 C 977.074219 270.480469 993.101562 244.304688 1003.144531 209.167969 L 1003.195312 209.179688 C 1005.847656 199.835938 1014.296875 192.863281 1024.519531 192.542969 C 1037.171875 192.148438 1047.746094 202.082031 1048.144531 214.738281 C 1049.414062 251.171875 1058.679688 280.433594 1075.9375 302.511719 C 1093.070312 324.433594 1118.785156 340.003906 1153.074219 349.226562 L 1153.0625 349.277344 C 1162.710938 351.851562 1169.886719 360.578125 1170.050781 371.0625 C 1170.25 383.714844 1160.152344 394.136719 1147.503906 394.332031 C 1137.449219 394.523438 1127.9375 395.382812 1118.96875 396.90625 Z M 510.519531 1046.054688 C 497.453125 1049.457031 485.15625 1054.40625 473.625 1060.914062 C 473.152344 1061.148438 472.683594 1061.394531 472.222656 1061.664062 C 459.78125 1068.847656 448.398438 1077.796875 438.066406 1088.511719 C 434.589844 1074.597656 429.449219 1061.601562 422.640625 1049.527344 C 422.40625 1049.054688 422.160156 1048.585938 421.890625 1048.125 C 415.023438 1036.222656 406.585938 1025.355469 396.582031 1015.515625 C 410.171875 1011.984375 422.929688 1006.777344 434.859375 999.890625 L 434.835938 999.851562 C 442.273438 995.550781 449.332031 990.625 456.011719 985.074219 C 456.855469 984.453125 457.652344 983.777344 458.398438 983.054688 C 462.050781 979.894531 465.585938 976.542969 469.007812 973 C 472.480469 986.929688 477.625 999.9375 484.441406 1012.027344 C 484.675781 1012.496094 484.921875 1012.964844 485.191406 1013.429688 C 492.0625 1025.335938 500.507812 1036.210938 510.519531 1046.054688 Z M 535.949219 479.8125 C 547.457031 474.554688 561.050781 479.621094 566.308594 491.132812 C 571.566406 502.648438 566.5 516.246094 554.992188 521.503906 C 554.332031 521.808594 552.613281 522.667969 549.886719 524.054688 C 547.644531 525.195312 545.769531 526.183594 544.214844 527.042969 C 520.683594 540.03125 508.515625 562.1875 503.738281 587.675781 C 496.839844 624.460938 504.554688 667.988281 516.621094 703.8125 C 520.640625 715.820312 514.164062 728.816406 502.160156 732.835938 C 490.15625 736.855469 477.167969 730.378906 473.148438 718.367188 C 459.015625 676.417969 450.136719 624.613281 458.648438 579.230469 C 465.8125 541.015625 484.820312 507.375 522.117188 486.789062 C 524.871094 485.269531 527.191406 484.027344 529.046875 483.082031 C 530.417969 482.386719 532.695312 481.304688 535.949219 479.8125 Z M 498.976562 794.597656 C 496.25 782.242188 504.050781 770.011719 516.402344 767.285156 C 528.753906 764.554688 540.980469 772.359375 543.707031 784.714844 C 545.207031 791.460938 546.207031 796.164062 546.839844 799.378906 C 547.25 801.453125 548.199219 806.652344 549.492188 813.828125 C 551.722656 826.285156 543.4375 838.191406 530.988281 840.425781 C 518.535156 842.65625 506.632812 834.371094 504.398438 821.914062 C 504.015625 819.769531 503.203125 815.542969 501.75 808.183594 C 500.523438 801.96875 499.5625 797.222656 498.976562 794.597656 Z M 498.976562 794.597656 " fill-opacity="1" fill-rule="evenodd"/></g></svg>