<svg xmlns="http://www.w3.org/2000/svg" xmlns:xlink="http://www.w3.org/1999/xlink" width="500" zoomAndPan="magnify" viewBox="0 0 1536 1535.999932" height="500" preserveAspectRatio="xMidYMid meet" version="1.0"><defs><clipPath id="728d40882a"><path d="M 347.679688 188 L 1135.929688 188 L 1135.929688 1382 L 347.679688 1382 Z M 347.679688 188 " clip-rule="nonzero"/></clipPath></defs><g clip-path="url(#728d40882a)"><path fill="#000000" d="M 1117.515625 594.210938 C 1117.371094 593.6875 1117.191406 593.164062 1116.996094 592.660156 C 1082.703125 501.757812 1025.285156 459.707031 947.675781 468.824219 C 937.996094 469.960938 930.683594 478.175781 930.683594 487.929688 L 930.683594 616.21875 C 930.683594 660.527344 894.648438 696.574219 850.347656 696.574219 L 630.578125 696.574219 C 586.285156 696.574219 550.25 660.527344 550.25 616.21875 L 550.25 487.667969 C 550.25 477.796875 542.785156 469.53125 532.96875 468.519531 C 456.800781 460.699219 400.257812 502.804688 366.367188 592.65625 C 366.179688 593.164062 366.007812 593.6875 365.855469 594.210938 C 332.65625 711.660156 344.910156 826.082031 401.289062 925.105469 L 404.070312 929.953125 C 413.292969 945.964844 414.703125 948.425781 411.878906 965.605469 C 382.808594 1141.980469 437.378906 1279.542969 574.152344 1374.523438 C 589.433594 1385.011719 611.296875 1382.78125 624.273438 1369.734375 C 631.640625 1362.320312 635.667969 1352.445312 635.609375 1342.039062 L 635.609375 1130.972656 C 635.609375 1072.453125 683.191406 1024.851562 741.691406 1024.851562 C 800.175781 1024.851562 847.769531 1072.453125 847.769531 1130.972656 L 847.769531 1341.929688 C 847.710938 1352.453125 851.730469 1362.324219 859.097656 1369.738281 C 866.480469 1377.160156 876.699219 1381.429688 887.113281 1381.429688 C 894.992188 1381.429688 902.632812 1379.046875 909.285156 1374.464844 C 1045.984375 1279.542969 1100.558594 1141.972656 1071.488281 965.609375 C 1068.664062 948.429688 1070.070312 945.972656 1079.289062 929.96875 L 1082.066406 925.109375 C 1138.464844 826.085938 1150.710938 711.664062 1117.515625 594.210938 Z M 1048.636719 906.074219 L 1045.949219 910.765625 C 1034.457031 930.71875 1028.6875 942.5 1033.527344 971.871094 C 1060.34375 1134.574219 1012.53125 1255.921875 887.4375 1342.800781 C 887.222656 1342.945312 887.15625 1342.945312 887.109375 1342.945312 L 886.230469 1342.042969 L 886.230469 1130.972656 C 886.230469 1051.242188 821.386719 986.378906 741.6875 986.378906 C 661.980469 986.378906 597.136719 1051.238281 597.136719 1130.972656 L 596.996094 1342.597656 L 596.003906 1342.855469 C 470.824219 1255.929688 423.011719 1134.574219 449.835938 971.863281 C 454.671875 942.488281 448.894531 930.699219 437.390625 910.738281 L 434.710938 906.0625 C 383.679688 816.425781 372.59375 712.503906 402.648438 605.476562 C 427.398438 540.355469 463.128906 507.824219 511.773438 506.175781 L 511.773438 616.21875 C 511.773438 681.75 565.070312 735.0625 630.574219 735.0625 L 850.347656 735.0625 C 915.863281 735.0625 969.152344 681.75 969.152344 616.21875 L 969.152344 506.117188 C 1019.039062 506.75 1055.550781 539.269531 1080.714844 605.476562 C 1110.773438 712.496094 1099.6875 816.421875 1048.636719 906.074219 Z M 630.578125 455.023438 L 850.347656 455.023438 C 915.863281 455.023438 969.152344 401.710938 969.152344 336.183594 L 969.152344 207.894531 C 969.152344 202.402344 966.804688 197.171875 962.703125 193.519531 C 958.601562 189.875 953.148438 188.175781 947.675781 188.785156 C 909.074219 193.320312 864.96875 211.113281 816.554688 241.695312 C 768.910156 259.679688 714.46875 259.679688 666.820312 241.695312 C 617.292969 210.417969 572.269531 192.507812 532.96875 188.484375 C 527.550781 187.929688 522.160156 189.691406 518.121094 193.351562 C 514.082031 196.996094 511.773438 202.183594 511.773438 207.628906 L 511.773438 336.183594 C 511.773438 401.710938 565.070312 455.023438 630.578125 455.023438 Z M 550.246094 230.429688 C 579.128906 237.316406 611.851562 252.320312 647.824219 275.214844 C 648.898438 275.894531 650.023438 276.464844 651.203125 276.921875 C 708.761719 299.222656 774.601562 299.222656 832.171875 276.921875 C 833.34375 276.464844 834.480469 275.890625 835.535156 275.214844 C 870.511719 252.964844 902.40625 238.160156 930.683594 231.03125 L 930.683594 336.183594 C 930.683594 380.492188 894.648438 416.539062 850.347656 416.539062 L 630.578125 416.539062 C 586.285156 416.539062 550.25 380.492188 550.25 336.183594 L 550.25 230.429688 Z M 616 314.335938 C 619.835938 304.425781 630.957031 299.5 640.878906 303.347656 C 705.878906 328.539062 777.480469 328.546875 842.480469 303.347656 C 852.382812 299.5 863.539062 304.417969 867.375 314.335938 C 871.210938 324.242188 866.289062 335.390625 856.378906 339.226562 C 819.394531 353.558594 780.539062 360.726562 741.679688 360.726562 C 702.828125 360.726562 663.964844 353.554688 626.988281 339.226562 C 617.078125 335.390625 612.160156 324.242188 616 314.335938 Z M 759.703125 509.0625 L 759.703125 596.074219 L 791.6875 564.089844 C 799.179688 556.574219 811.371094 556.574219 818.882812 564.089844 C 826.398438 571.601562 826.398438 583.785156 818.882812 591.300781 L 754.066406 656.136719 C 750.320312 659.894531 745.390625 661.769531 740.46875 661.769531 C 735.542969 661.769531 730.617188 659.894531 726.867188 656.136719 L 662.054688 591.300781 C 654.542969 583.785156 654.542969 571.601562 662.054688 564.089844 C 669.558594 556.574219 681.753906 556.574219 689.25 564.089844 L 721.230469 596.074219 L 721.230469 509.0625 C 721.230469 498.433594 729.839844 489.820312 740.46875 489.820312 C 751.09375 489.820312 759.703125 498.433594 759.703125 509.0625 Z M 759.703125 509.0625 " fill-opacity="1" fill-rule="nonzero"/></g></svg>