<svg xmlns="http://www.w3.org/2000/svg" version="1.1" xmlns:xlink="http://www.w3.org/1999/xlink" width="512" height="512" x="0" y="0" viewBox="0 0 128 128" style="enable-background:new 0 0 512 512" xml:space="preserve" class=""><g><path fill="#056ba3" fill-rule="evenodd" d="M111.53 56.31c.3-.56.47-1.201.47-1.88V36a4 4 0 0 0-4-4H20a4 4 0 0 0-4 4v18.482c0 .674.167 1.31.462 1.867.25-1.23.63-2.418 1.029-3.605a21.637 21.637 0 0 1 41.02.004c.894 2.66 1.489 5.356 1.489 8.18v.057c2.668.025 5.327.019 8-.02v-.036c0-2.825.596-5.523 1.49-8.185a21.637 21.637 0 0 1 41.021.004c.395 1.173.77 2.347 1.019 3.563zm8.47-1.88c0 5.166-3.291 9.655-8 11.3V74c0 6.627-5.373 12-12 12H80c-6.627 0-12-5.373-12-12v-5.034c-2.672.038-5.332.044-8 .02V74c0 6.627-5.373 12-12 12H28c-6.627 0-12-5.373-12-12v-8.222c-4.715-1.642-8-6.136-8-11.296V36c0-6.627 5.373-12 12-12h88c6.627 0 12 5.373 12 12zM52 74a4 4 0 0 1-4 4H28a4 4 0 0 1-4-4V60.93c0-1.958.456-3.799 1.074-5.637a13.637 13.637 0 0 1 25.854.002C51.545 57.132 52 58.972 52 60.927zm52 0a4 4 0 0 1-4 4H80a4 4 0 0 1-4-4V60.93c0-1.958.456-3.799 1.074-5.637a13.637 13.637 0 0 1 25.854.002c.616 1.837 1.072 3.677 1.072 5.632zM91 88a4 4 0 0 0-4 4H41a4 4 0 0 0-8 0v8a4 4 0 0 0 8 0h46a4 4 0 0 0 8 0v-8a4 4 0 0 0-4-4z" clip-rule="evenodd" opacity="1" data-original="#000000" class=""></path></g></svg>