<svg xmlns="http://www.w3.org/2000/svg" version="1.1" xmlns:xlink="http://www.w3.org/1999/xlink" width="512" height="512" x="0" y="0" viewBox="0 0 48 48" style="enable-background:new 0 0 512 512" xml:space="preserve" class=""><g><g data-name="Face Mask"><path d="M47.998 18.287c.068-4.36-1.892-7.97-4.558-8.397-1.893-.302-4.583.794-6.937 7.44-.22-.167-.464-.347-.738-.544l-.798-3.04a1.05 1.05 0 0 0-.072-.193C34.801 13.367 32.52 9 24 9s-10.802 4.367-10.895 4.553a1.05 1.05 0 0 0-.072.193l-.798 3.04c-.274.196-.517.376-.738.543C9.143 10.685 6.45 9.59 4.56 9.89c-2.666.428-4.626 4.038-4.558 8.398.076 4.924 2.906 10.525 10.565 11.652.293.241.87.702 1.668 1.275l.798 3.04a1.05 1.05 0 0 0 .072.192C13.198 34.633 15.48 39 24 39s10.802-4.367 10.895-4.553a1.05 1.05 0 0 0 .072-.193l.798-3.04a32.787 32.787 0 0 0 1.668-1.274c7.659-1.127 10.489-6.728 10.565-11.653Zm-4.874-6.423c1.403.226 2.929 2.905 2.875 6.392A9.52 9.52 0 0 1 38 27.806v-8.648c1.8-5.684 3.81-7.514 5.124-7.294Zm-28.19 2.517C15.258 13.856 17.33 11 24 11c6.697 0 8.76 2.88 9.065 3.378l.201.764C30.652 13.574 27.23 12 24 12s-6.652 1.574-9.266 3.142ZM2.001 18.256c-.054-3.486 1.472-6.166 2.875-6.392C6.171 11.651 8.2 13.472 10 19.158v8.648a9.52 9.52 0 0 1-7.999-9.55Zm31.065 15.363C32.742 34.144 30.67 37 24 37c-6.697 0-8.76-2.88-9.065-3.378l-.201-.764C17.348 34.426 20.77 36 24 36s6.652-1.574 9.266-3.142ZM36 28.526C34.546 29.69 28.83 34 24 34s-10.546-4.31-12-5.474v-9.052C13.454 18.31 19.17 14 24 14s10.546 4.31 12 5.474Z" fill="#056ba3" opacity="1" data-original="#000000" class=""></path><path d="M30 23H18a1 1 0 0 0 0 2h12a1 1 0 0 0 0-2ZM17.673 19.055a1 1 0 1 0 .654 1.89 17.4 17.4 0 0 1 11.346 0 1 1 0 1 0 .654-1.89 19.43 19.43 0 0 0-12.654 0ZM29.673 27.055a17.4 17.4 0 0 1-11.346 0 1 1 0 0 0-.654 1.89 19.437 19.437 0 0 0 12.654 0 1 1 0 1 0-.654-1.89Z" fill="#056ba3" opacity="1" data-original="#000000" class=""></path></g></g></svg>