<svg xmlns="http://www.w3.org/2000/svg" version="1.1" xmlns:xlink="http://www.w3.org/1999/xlink" width="512" height="512" x="0" y="0" viewBox="0 0 682.667 682.667" style="enable-background:new 0 0 512 512" xml:space="preserve" class=""><g><defs><clipPath id="a" clipPathUnits="userSpaceOnUse"><path d="M0 512h512V0H0Z" fill="#000000" opacity="1" data-original="#000000"></path></clipPath></defs><g clip-path="url(#a)" transform="matrix(1.33333 0 0 -1.33333 0 682.667)"><path d="M0 0a85.62 85.62 0 0 0 10.354 41.363 109.454 109.454 0 0 1 13.241 52.185v37.321A32.862 32.862 0 0 1 3.181 161.28a32.873 32.873 0 0 1-28.239-1.589l-18.045-9.881a32.865 32.865 0 0 0-15.786-4.039h-.699a32.868 32.868 0 0 0-15.786 4.039l-18.046 9.881a32.87 32.87 0 0 1-28.238 1.589 32.86 32.86 0 0 1-20.414-30.411" style="stroke-width:15;stroke-linecap:round;stroke-linejoin:round;stroke-miterlimit:10;stroke-dasharray:none;stroke-opacity:1" transform="translate(480.905 203.19)" fill="none" stroke="#000000" stroke-width="15" stroke-linecap="round" stroke-linejoin="round" stroke-miterlimit="10" stroke-dasharray="none" stroke-opacity="" data-original="#000000" class=""></path><path d="M0 0a109.47 109.47 0 0 1 13.241-52.186 85.604 85.604 0 0 0 9.288-54.284l-3.479-21.833c-1.629-10.221 4.741-20.018 14.745-22.676 9.703-2.579 19.826 2.365 23.756 11.602l15.232 35.803a10.923 10.923 0 0 0 20.101 0l15.232-35.803c3.93-9.237 14.053-14.181 23.756-11.602 10.004 2.658 16.374 12.455 14.745 22.676" style="stroke-width:15;stroke-linecap:round;stroke-linejoin:round;stroke-miterlimit:10;stroke-dasharray:none;stroke-opacity:1" transform="translate(338.833 296.74)" fill="none" stroke="#000000" stroke-width="15" stroke-linecap="round" stroke-linejoin="round" stroke-miterlimit="10" stroke-dasharray="none" stroke-opacity="" data-original="#000000" class=""></path><path d="M0 0c0-18.226 4.551-36.164 13.24-52.186a85.597 85.597 0 0 0 9.288-54.284l-3.479-21.833c-1.629-10.221 4.741-20.018 14.746-22.676 9.702-2.579 19.825 2.365 23.756 11.602l15.231 35.803a10.923 10.923 0 0 0 20.102 0l15.231-35.803c3.931-9.237 14.054-14.181 23.756-11.602 10.005 2.658 16.375 12.455 14.746 22.676l-3.479 21.833a85.597 85.597 0 0 0 9.288 54.284A109.468 109.468 0 0 1 165.666 0v37.321a32.858 32.858 0 0 1-20.413 30.41 32.873 32.873 0 0 1-28.238-1.588l-18.046-9.881a32.871 32.871 0 0 0-15.786-4.039h-.7a32.871 32.871 0 0 0-15.786 4.039l-18.046 9.881a32.873 32.873 0 0 1-28.238 1.588A32.858 32.858 0 0 1 0 37.321" style="stroke-width:15;stroke-linecap:round;stroke-linejoin:round;stroke-miterlimit:10;stroke-dasharray:none;stroke-opacity:1" transform="translate(173.167 296.74)" fill="none" stroke="#000000" stroke-width="15" stroke-linecap="round" stroke-linejoin="round" stroke-miterlimit="10" stroke-dasharray="none" stroke-opacity="" data-original="#000000" class=""></path><path d="M0 0c0-18.226 4.551-36.164 13.241-52.186a85.604 85.604 0 0 0 9.288-54.284l-3.479-21.833c-1.629-10.221 4.741-20.018 14.745-22.676 9.703-2.579 19.826 2.365 23.756 11.602l15.232 35.803a10.92 10.92 0 0 0 20.101 0l15.232-35.803c3.93-9.237 14.053-14.181 23.756-11.602 10.004 2.658 16.374 12.455 14.745 22.676l-3.479 21.833a85.604 85.604 0 0 0 9.288 54.284A109.47 109.47 0 0 1 165.667 0v37.321a32.859 32.859 0 0 1-20.414 30.41 32.874 32.874 0 0 1-28.238-1.588l-18.046-9.881a32.868 32.868 0 0 0-15.786-4.039h-.7a32.871 32.871 0 0 0-15.786 4.039l-18.045 9.881a32.874 32.874 0 0 1-28.238 1.588A32.859 32.859 0 0 1 0 37.321V35" style="stroke-width:15;stroke-linecap:round;stroke-linejoin:round;stroke-miterlimit:10;stroke-dasharray:none;stroke-opacity:1" transform="translate(7.5 296.74)" fill="none" stroke="#000000" stroke-width="15" stroke-linecap="round" stroke-linejoin="round" stroke-miterlimit="10" stroke-dasharray="none" stroke-opacity="" data-original="#000000" class=""></path><path d="M0 0h-40c-5.523 0-10 4.477-10 10v40c0 5.523 4.477 10 10 10H0c5.522 0 10-4.477 10-10V10C10 4.477 5.522 0 0 0Z" style="stroke-width:15;stroke-linecap:round;stroke-linejoin:round;stroke-miterlimit:10;stroke-dasharray:none;stroke-opacity:1" transform="translate(441.856 259)" fill="none" stroke="#000000" stroke-width="15" stroke-linecap="round" stroke-linejoin="round" stroke-miterlimit="10" stroke-dasharray="none" stroke-opacity="" data-original="#000000" class=""></path><path d="M424.355 286.5h-5v5h5z" style="stroke-width:15;stroke-linecap:round;stroke-linejoin:round;stroke-miterlimit:10;stroke-dasharray:none;stroke-opacity:1" fill="none" stroke="#000000" stroke-width="15" stroke-linecap="round" stroke-linejoin="round" stroke-miterlimit="10" stroke-dasharray="none" stroke-opacity="" data-original="#000000" class=""></path><path d="M0 0h-50.834" style="stroke-width:15;stroke-linecap:round;stroke-linejoin:round;stroke-miterlimit:10;stroke-dasharray:none;stroke-opacity:1" transform="translate(390.856 289)" fill="none" stroke="#000000" stroke-width="15" stroke-linecap="round" stroke-linejoin="round" stroke-miterlimit="10" stroke-dasharray="none" stroke-opacity="" data-original="#000000" class=""></path><path d="M0 0h50.456" style="stroke-width:15;stroke-linecap:round;stroke-linejoin:round;stroke-miterlimit:10;stroke-dasharray:none;stroke-opacity:1" transform="translate(452.856 289)" fill="none" stroke="#000000" stroke-width="15" stroke-linecap="round" stroke-linejoin="round" stroke-miterlimit="10" stroke-dasharray="none" stroke-opacity="" data-original="#000000" class=""></path><path d="M0 0h-40c-5.522 0-10 4.477-10 10v40c0 5.523 4.478 10 10 10H0c5.523 0 10-4.477 10-10V10C10 4.477 5.523 0 0 0Z" style="stroke-width:15;stroke-linecap:round;stroke-linejoin:round;stroke-miterlimit:10;stroke-dasharray:none;stroke-opacity:1" transform="translate(276.188 259)" fill="none" stroke="#000000" stroke-width="15" stroke-linecap="round" stroke-linejoin="round" stroke-miterlimit="10" stroke-dasharray="none" stroke-opacity="" data-original="#000000" class=""></path><path d="M258.688 286.5h-5v5h5z" style="stroke-width:15;stroke-linecap:round;stroke-linejoin:round;stroke-miterlimit:10;stroke-dasharray:none;stroke-opacity:1" fill="none" stroke="#000000" stroke-width="15" stroke-linecap="round" stroke-linejoin="round" stroke-miterlimit="10" stroke-dasharray="none" stroke-opacity="" data-original="#000000" class=""></path><path d="M0 0h-50.833" style="stroke-width:15;stroke-linecap:round;stroke-linejoin:round;stroke-miterlimit:10;stroke-dasharray:none;stroke-opacity:1" transform="translate(225.189 289)" fill="none" stroke="#000000" stroke-width="15" stroke-linecap="round" stroke-linejoin="round" stroke-miterlimit="10" stroke-dasharray="none" stroke-opacity="" data-original="#000000" class=""></path><path d="M0 0h50.456" style="stroke-width:15;stroke-linecap:round;stroke-linejoin:round;stroke-miterlimit:10;stroke-dasharray:none;stroke-opacity:1" transform="translate(287.188 289)" fill="none" stroke="#000000" stroke-width="15" stroke-linecap="round" stroke-linejoin="round" stroke-miterlimit="10" stroke-dasharray="none" stroke-opacity="" data-original="#000000" class=""></path><path d="M0 0h-40c-5.522 0-10 4.477-10 10v40c0 5.523 4.478 10 10 10H0c5.523 0 10-4.477 10-10V10C10 4.477 5.523 0 0 0Z" style="stroke-width:15;stroke-linecap:round;stroke-linejoin:round;stroke-miterlimit:10;stroke-dasharray:none;stroke-opacity:1" transform="translate(110.333 259)" fill="none" stroke="#000000" stroke-width="15" stroke-linecap="round" stroke-linejoin="round" stroke-miterlimit="10" stroke-dasharray="none" stroke-opacity="" data-original="#000000" class=""></path><path d="M92.833 286.5h-5v5h5z" style="stroke-width:15;stroke-linecap:round;stroke-linejoin:round;stroke-miterlimit:10;stroke-dasharray:none;stroke-opacity:1" fill="none" stroke="#000000" stroke-width="15" stroke-linecap="round" stroke-linejoin="round" stroke-miterlimit="10" stroke-dasharray="none" stroke-opacity="" data-original="#000000" class=""></path><path d="M0 0h-51.645" style="stroke-width:15;stroke-linecap:round;stroke-linejoin:round;stroke-miterlimit:10;stroke-dasharray:none;stroke-opacity:1" transform="translate(60.333 289)" fill="none" stroke="#000000" stroke-width="15" stroke-linecap="round" stroke-linejoin="round" stroke-miterlimit="10" stroke-dasharray="none" stroke-opacity="" data-original="#000000" class=""></path><path d="M0 0h51.457" style="stroke-width:15;stroke-linecap:round;stroke-linejoin:round;stroke-miterlimit:10;stroke-dasharray:none;stroke-opacity:1" transform="translate(120.522 289)" fill="none" stroke="#000000" stroke-width="15" stroke-linecap="round" stroke-linejoin="round" stroke-miterlimit="10" stroke-dasharray="none" stroke-opacity="" data-original="#000000" class=""></path></g></g></svg>