<svg xmlns="http://www.w3.org/2000/svg" version="1.1" xmlns:xlink="http://www.w3.org/1999/xlink" width="512" height="512" x="0" y="0" viewBox="0 0 32 32" style="enable-background:new 0 0 512 512" xml:space="preserve" class=""><g><path d="M6.112 11.593c.13.635 1.108.433.979-.201a3.625 3.625 0 0 1 .395-2.499c.319-.563-.552-1.057-.87-.492a4.62 4.62 0 0 0-.504 3.192zM8.282 7.782c.101 0 .202-.03.29-.093a3.78 3.78 0 0 1 .518-.311.5.5 0 0 0-.444-.897 4.752 4.752 0 0 0-.655.393.5.5 0 0 0 .291.908z" fill="#056ba3" opacity="1" data-original="#000000" class=""></path><path d="M27.699 12.514c.772-2.639-.093-5.389-2.297-7.101-2.332-1.811-5.416-1.909-7.858-.254-.435.294-.871.607-1.311.923L16 6.249c-.512-.367-1.023-.736-1.545-1.09-2.443-1.655-5.527-1.556-7.858.254-2.203 1.712-3.067 4.462-2.296 7.101A1.5 1.5 0 0 0 4.5 15.5h.832l3.805 10.674c.918 2.576 4.729 2.342 5.336-.314l1.48-6.879 1.575 6.882c.609 2.658 4.424 2.873 5.335.312l3.805-10.674h.832a1.5 1.5 0 0 0 .199-2.987zM7.21 6.205c1.982-1.54 4.606-1.625 6.685-.216 2.497 1.693 4.913 3.836 8.056 4.081a.5.5 0 0 0 .073-.999c-1.888-.137-3.558-1.11-5.155-2.212a60.24 60.24 0 0 1 1.236-.871c2.078-1.408 4.702-1.323 6.685.216 1.549 1.203 2.843 3.484 1.881 6.289H21V10.99a.5.5 0 0 0-.5-.501h-9a.5.5 0 0 0-.5.501v1.503H5.329c-.961-2.804.332-5.085 1.881-6.288zM20 13.496h-1v-1.002a.5.5 0 0 0-.5-.501h-1.531a.5.5 0 0 0-.5.501v1.002h-.938v-1.002a.5.5 0 0 0-.5-.501H13.5a.5.5 0 0 0-.5.501v1.002h-1v-2.003h8zm-2-.501v2.003h-.531v-2.003zm-3.469 0v2.003H14v-2.003zM12 14.497h1v1.002a.5.5 0 0 0 .5.501h1.531a.5.5 0 0 0 .5-.501v-1.002h.938v1.002a.5.5 0 0 0 .5.501H18.5a.5.5 0 0 0 .5-.501v-1.001h1v2.003h-8zm-8-.5c0-.276.224-.501.5-.501H11v1.002H4.5a.502.502 0 0 1-.5-.501zm17.922 11.84c-.331.927-1.146 1.216-1.787 1.179-.646-.038-1.414-.42-1.633-1.378l-1.575-6.882a.936.936 0 0 0-.927-.74.935.935 0 0 0-.927.741l-1.575 6.878c-.221.964-.989 1.347-1.634 1.385-.641.046-1.454-.252-1.786-1.183L6.393 15.499H11v1.503a.5.5 0 0 0 .5.501h9a.5.5 0 0 0 .5-.501v-1.503h4.607zm5.578-11.34H21v-1.002h6.5a.501.501 0 0 1 0 1.002z" fill="#056ba3" opacity="1" data-original="#000000" class=""></path></g></svg>