<svg width="128" height="128" viewBox="0 0 128 128" fill="none" xmlns="http://www.w3.org/2000/svg">
  <g stroke="#056ba3" stroke-width="4" stroke-linecap="round" stroke-linejoin="round">
    <!-- Tooth base outline -->
    <path d="M44 22C34 22 28 30 28 40C28 52 34 60 38 70C42 80 42 96 48 104C52 110 58 104 60 96L64 86L68 96C70 104 76 110 80 104C86 96 86 80 90 70C94 60 100 52 100 40C100 30 94 22 84 22C76 22 70 26 64 32C58 26 52 22 44 22Z"/>
    <!-- Crown cap outline on top tooth -->
    <path d="M46 36C52 30 58 28 64 30C70 28 76 30 82 36L80 48C74 44 70 42 64 42C58 42 54 44 48 48Z"/>
    <!-- Zirconia shine sparkle -->
    <path d="M94 26L94 34"/>
    <path d="M90 30L98 30"/>
    <path d="M92 28L96 32"/>
    <path d="M96 28L92 32"/>
    <!-- Premium ceramic layer line -->
    <path d="M50 52C56 48 60 48 64 50C68 52 74 52 80 48"/>
  </g>
</svg>